<svg width="732" height="127" viewBox="0 0 732 127" fill="none" xmlns="http://www.w3.org/2000/svg">
<mask id="mask0_936_267" style="mask-type:alpha" maskUnits="userSpaceOnUse" x="0" y="0" width="732" height="127">
<g clip-path="url(#clip0_936_267)">
<path d="M28.8923 123.925C17.8406 120.049 9.90929 113.23 4.82411 103.232L2.26842 98.2076L1.13421 91.1735L0 84.1396L1.05246 77.0632L2.10497 69.9868L4.59621 64.9708L7.08748 59.9548L12.122 54.7696L17.1565 49.5844L22.1711 47.027C38.4233 38.7387 60.4765 40.7219 73.092 51.6061L76.9746 54.956V56.6202V58.2845L71.8764 62.944C65.8961 68.4096 66.0457 68.3794 62.1007 64.9156C60.4171 63.4374 56.8056 61.3402 54.0753 60.2552L49.1111 58.2827L43.173 58.7068L37.2349 59.131L32.6671 61.8314L28.0993 64.5317L25.1551 68.3898L22.2109 72.2479L21.1713 76.0921L20.1316 79.9363L20.5518 86.5493L20.9719 93.1622L23.6417 97.4804L26.3114 101.799L30.0052 104.616L33.699 107.433L38.9847 108.616L44.2705 109.799L50.1808 108.684L56.0911 107.569L60.5679 104.03C65.6001 100.052 71.7326 102.477 76.3623 110.275L77.1204 111.552L75.6507 113.795C74.8424 115.029 72.0347 117.46 69.4113 119.198L64.6416 122.358L58.8129 124.214L52.9841 126.071L43.7392 125.98L34.4942 125.889L28.8923 123.925ZM58.241 122.961L65.1566 120.765L70.152 116.994L75.1475 113.222V111.801V110.381L70.8081 106.386C65.5979 101.59 65.8546 101.625 61.5169 105.111L58.0425 107.903L53.66 109.222C48.0542 110.909 41.9675 110.898 36.2188 109.19L31.6737 107.84L27.7945 104.52L23.9152 101.199L21.6679 96.7642L19.4205 92.3292L19.4283 83.8484L19.436 75.3676L22.0709 70.7999C25.265 65.2625 27.6269 63.0107 33.4867 59.9165L37.9629 57.5533L44.9068 57.5745L51.8509 57.5958L55.8263 59.3998C58.0128 60.3919 61.0248 62.2328 62.5197 63.4907C66.0856 66.4913 66.0216 66.5072 71.657 61.2057L76.5169 56.6336L72.6408 53.0936C70.5089 51.1467 66.5502 48.5053 63.8436 47.2238L58.9226 44.8937L51.7698 43.8989L44.6169 42.904L37.2712 43.8852L29.9255 44.8663L24.194 47.519L18.4625 50.1717L13.4219 55.2122L8.38127 60.2528L5.45003 66.4412L2.51878 72.6293V84.0488V95.4683L5.37432 101.406C8.68629 108.294 13.0766 113.631 18.5498 117.424L22.4206 120.106L29.8273 122.613L37.2339 125.12L44.2792 125.141L51.3245 125.162L58.2401 122.966L58.241 122.961ZM104.135 124.237C93.554 120.71 87.4333 114.811 83.7084 104.548L81.5424 98.5812V93.6945V88.8076L83.3906 82.8239L85.2388 76.8401L89.8405 71.8051L94.4422 66.7701L100.328 63.9893L106.213 61.2085L116.032 61.2093L125.85 61.2099L131.331 63.8155L136.813 66.421L140.664 70.1782L144.515 73.9355L147.038 78.7631L149.56 83.5907L149.581 93.6397L149.602 103.689L147.141 108.355L144.679 113.021L140.016 117.213L135.354 121.405L130.145 123.414L124.936 125.424L117.171 125.709L109.406 125.994L104.135 124.237ZM128.81 122.364L134.511 120.428L139.042 116.355L143.572 112.281L146.113 107.087L148.654 101.894L148.605 93.6357L148.556 85.3776L146.2 80.2311L143.844 75.0847L139.872 71.2045L135.899 67.3242L130.874 64.9515L125.85 62.5788L115.801 62.6107L105.751 62.6425L101.378 64.7223C96.029 67.266 91.4047 71.2332 88.0084 76.1921L85.4464 79.933L83.8702 86.2519L82.2939 92.5709L82.899 96.6056C83.715 102.047 85.476 106.829 88.3273 111.345L90.6993 115.103L95.0279 118.248L99.3565 121.393L103.467 122.55C111.335 124.764 113.09 125.017 118.084 124.658C120.848 124.459 125.674 123.425 128.81 122.361L128.81 122.364ZM107.487 108.866C102.601 105.316 101.687 104.034 100.305 98.7941L99.1066 94.253L99.8869 90.0763C100.316 87.7791 101.309 84.6589 102.093 83.1425L103.519 80.3854L106.919 78.1669C108.789 76.9466 111.834 75.6743 113.686 75.3396L117.052 74.7309L120.332 75.8134C124.372 77.1468 128.673 80.6736 130.45 84.1109L131.788 86.6974V93.8391V100.981L129.473 104.388L127.158 107.795L123.571 109.624L119.985 111.454H115.517H111.05L107.487 108.866ZM122.286 108.8L126.031 107.099L128.224 104.024L130.418 100.948V93.4782V86.0083L128.507 83.4291C127.455 82.0105 125.236 79.9248 123.575 78.7943L120.555 76.7388H116.543H112.531L109.052 78.5133C104.903 80.6299 102.996 83.3118 101.547 89.0647L100.471 93.3381L101.547 98.1474L102.624 102.957L105.101 105.32C110.737 110.697 115.835 111.729 122.286 108.8ZM248.484 124.196C244.585 123.237 240.165 121.817 238.664 121.041L235.934 119.629V117.947C235.934 117.022 236.811 114.155 237.882 111.576L239.831 106.886H241.527C242.459 106.886 245.385 107.736 248.028 108.774L252.834 110.662L260.338 111.185L267.842 111.707L270.214 110.153L272.586 108.599L272.303 106.144L272.019 103.689L268.365 102.612C266.355 102.019 260.741 100.712 255.89 99.7075L247.069 97.8805L244.009 95.8748C242.326 94.7718 240.157 92.8184 239.188 91.5342L237.427 89.1991L237.027 84.3816C236.808 81.732 236.908 78.0693 237.251 76.2423L237.874 72.9205L241.501 68.9856L245.128 65.0507L250.08 63.0409L255.032 61.0311L267.636 61.4298L280.241 61.8284L284.124 63.4842L288.006 65.14V67.0393C288.006 69.3926 284.273 78.5662 283.315 78.5662C282.929 78.5662 280.247 77.9495 277.353 77.1958L272.092 75.8255H265.948C262.569 75.8255 258.786 76.213 257.54 76.6868L255.274 77.5479L254.644 79.5348L254.013 81.5216L255.78 83.2878L257.546 85.054L265.98 86.4117C270.619 87.1584 276.626 88.5966 279.328 89.6077L284.242 91.446L286.999 94.5865L289.756 97.7269L290.764 101.47L291.772 105.212L291.17 108.105C290.839 109.696 289.569 112.734 288.349 114.856L286.131 118.714L282.272 120.944C280.15 122.171 276.181 123.826 273.452 124.623L268.49 126.071L262.032 126.005L255.575 125.939L248.484 124.196ZM275.805 122.324L281.418 120.505L284.629 117.386L287.84 114.268L288.944 110.925L290.047 107.583L289.588 103.512L289.129 99.4413L286.424 96.0837L283.719 92.7261L277.881 90.6207L272.042 88.5152L265.179 87.6508L258.316 86.7863L256.032 85.098L253.748 83.4098L253.464 81.0432L253.18 78.6767L254.988 76.8694L256.795 75.062L261.666 74.4633L266.538 73.8646L272.019 74.7896C275.034 75.2982 278.769 75.983 280.321 76.3111L283.141 76.9077L285.193 72.1364L287.246 67.365L286.027 66.2338C285.357 65.6116 283.37 64.5996 281.611 63.9848L278.414 62.8671L268.255 62.3723L258.095 61.8774L252.724 63.5649L247.353 65.2524L243.476 68.8233L239.598 72.3942L238.581 76.1652L237.564 79.9362L238.094 84.4279L238.624 88.9196L241.161 91.5895C244.944 95.5697 248.077 96.8757 259.323 99.1589C264.938 100.299 270.395 101.693 271.45 102.258L273.368 103.285L273.974 105.699L274.58 108.113L272.106 110.24L269.633 112.367H261.94H254.246L248.115 110.06L241.984 107.752L240.906 108.918C240.313 109.559 239.405 111.317 238.888 112.824C238.371 114.332 237.667 116.257 237.323 117.102L236.699 118.639L239.285 119.94C241.558 121.084 251.219 123.511 257.859 124.606C261.796 125.256 269.966 124.217 275.805 122.324ZM428.694 125.457C420.605 124.168 414.378 120.078 411.253 114.003L409.509 110.613V106.892V103.171L411.737 98.776L413.964 94.3808L416.462 92.744C417.836 91.8438 421.047 90.5514 423.599 89.872L428.237 88.6368L435.66 88.6259C439.742 88.6197 444.367 88.358 445.937 88.0441L448.792 87.4731V84.5645V81.6558L447.65 80.2446C447.022 79.4683 445.492 78.1564 444.25 77.3292L441.991 75.8253L435.571 75.8362L429.151 75.847L424.266 78.1211C421.579 79.3718 419.024 80.1742 418.587 79.9042C417.483 79.2214 413.164 70.4782 413.164 68.9255V67.6537L415.676 66.3551C417.058 65.6409 421.188 64.1455 424.854 63.0322L431.521 61.0078L440.842 61.3879L450.163 61.7679L454.274 63.877C459.899 66.7633 462.275 69.1044 465.01 74.4588L467.344 79.0265L467.784 99.2563C468.026 110.383 467.955 120.557 467.626 121.867L467.029 124.248H459.718H452.407L451.367 121.964C450.247 119.507 449.263 119.093 448.289 120.669C446.592 123.415 434.465 126.381 428.694 125.461V125.457ZM442.381 121.433C444.633 120.411 447.172 118.945 448.023 118.175L449.57 116.775L451.197 117.088L452.823 117.401L453.361 119.68L453.899 121.96H459.339H464.78V100.034V78.1087L462.706 74.2272L460.632 70.3456L457.225 68.1258C455.35 66.905 451.367 65.2059 448.372 64.35L442.927 62.7938L435.963 63.3308L429 63.8679L422.848 66.1009C419.464 67.3291 416.48 68.5498 416.216 68.8136C415.591 69.4384 417.863 75.7107 419.078 76.7164L420.015 77.4923L423.464 75.813C427.114 74.0363 429.324 73.7564 438.528 73.9052L444.251 73.9976L447.372 76.9667L450.493 79.9357L451.023 83.59L451.552 87.2442L450.684 88.5785L449.817 89.9128L438.113 90.5603C422.14 91.444 417.657 93.0046 414.037 98.9417L412.257 101.861L412.253 106.089L412.25 110.317L413.545 113.416C415.226 117.439 417.173 119.123 422.756 121.382L427.324 123.23L432.805 123.262L438.287 123.294L442.381 121.437L442.381 121.433ZM432.131 114.541L427.802 113.232L426.421 110.561C424.663 107.161 424.676 104.759 426.469 101.287L427.9 98.5202L431.007 97.2218L434.115 95.9235L441.681 95.9399L449.247 95.9562L450.617 96.8228L451.988 97.6894L451.904 101.605L451.819 105.521L450.24 108.57L448.661 111.619L444.843 113.256C442.743 114.156 439.997 115.109 438.741 115.374L436.457 115.855L432.129 114.546L432.131 114.541ZM441.552 112.364L444.817 111.457L446.953 109.183L449.09 106.909L449.17 103.015L449.249 99.121L440.963 98.8605L432.677 98.6001L430.181 100.563L427.686 102.526L427.962 106.305L428.238 110.084L431.435 111.681C435.097 113.511 436.969 113.637 441.552 112.364ZM508.174 125.417C496.305 124.153 486.645 117.528 481.575 107.178L479.419 102.775L479.446 93.1828L479.472 83.5905L481.867 78.981C483.185 76.4458 485.943 72.691 487.997 70.6371L491.731 66.9026L496.983 64.3513L502.235 61.8L511.432 61.4067L520.628 61.0134L525.592 63.1131C531.899 65.7812 535.969 68.8223 538.318 72.6222L540.17 75.6191L539.691 76.864C539.316 77.8408 531.965 82.3255 528.223 83.8603C527.861 84.0087 525.686 82.5036 523.388 80.5154L519.212 76.9005L516.433 76.2902L513.655 75.6799L510.685 76.2928C509.052 76.6298 506.186 77.8941 504.316 79.1022L500.916 81.2987L499.628 83.8148C498.92 85.1987 498.073 87.9754 497.747 89.9852L497.154 93.6394L497.991 98.0476L498.827 102.456L501.445 105.202C507.962 112.042 518.342 112.219 524.548 105.595C527.406 102.546 540.148 106.041 540.148 109.874C540.148 118.165 522.164 126.908 508.174 125.417ZM526.209 120.632L530.997 118.544L534.259 114.933L537.522 111.322L536.384 109.951C535.758 109.197 533.63 107.756 531.656 106.748L528.066 104.917L525.657 107.674L523.247 110.431L518.694 111.918L514.142 113.404L510.972 112.81C506.739 112.016 501.809 109.413 499.159 106.574L496.997 104.257L495.84 99.2787L494.682 94.3007L495.551 89.4024L496.419 84.504L498.505 81.3066L500.591 78.1091L504.711 76.0536L508.83 73.9982H513.587H518.343L520.338 75.0213C521.436 75.5841 523.643 77.2832 525.243 78.7971L528.153 81.5499L532.276 79.1335C534.544 77.8045 536.635 76.3355 536.924 75.8691L537.448 75.0211L534.624 71.8055L531.801 68.59L526.768 66.1278L521.736 63.6656L514.969 63.2313L508.202 62.797L501.791 64.8587L495.379 66.9203L491.468 70.363L487.557 73.8055L485.058 78.3973L482.559 82.989L481.619 88.0693L480.68 93.1495L481.713 98.842L482.745 104.535L485.039 108.449C486.3 110.601 489.132 113.947 491.332 115.883L495.331 119.403L501.067 121.381L506.803 123.359L514.112 123.04L521.42 122.72L526.209 120.632ZM162.858 124.269L161.497 123.408L161.159 94.2636L160.82 65.1191L161.867 63.1637L162.913 61.2084H169.668H176.422L177.857 62.6439C178.647 63.4335 179.293 64.6668 179.293 65.3846C179.293 67.0874 179.123 67.1246 185.834 63.9497L191.626 61.2098L199.862 61.2091L208.097 61.2084L211.738 63.1269C213.74 64.1821 216.687 66.2918 218.287 67.8151L221.195 70.5846L223.281 75.2604L225.366 79.9363L225.397 101.664L225.428 123.391L224.058 124.26L222.687 125.129L215.79 125.146L208.892 125.162L207.796 124.066L206.7 122.969L206.694 106.023L206.688 89.0765L205.752 85.7093L204.817 82.3423L202.033 79.9996L199.249 77.657H193.824H188.4L185.167 80.6261L181.935 83.5951L181.092 87.2493L180.248 90.9036L180.226 106.937L180.205 122.969L179.108 124.066L178.012 125.162L171.115 125.146L164.217 125.129L162.856 124.269H162.858ZM179.293 103.981L179.75 85.0884L181.633 82.5687C182.669 81.183 184.652 79.2015 186.04 78.1656L188.563 76.282H193.91H199.257L201.837 78.1741C203.255 79.2147 205.135 81.4758 206.013 83.1987L207.61 86.3311L207.627 103.689L207.641 121.046L208.391 122.229L209.142 123.412L216.371 123.143L223.6 122.873V100.491V78.1092L221.897 74.9118C219.509 70.4284 215.969 66.8266 211.89 64.7285L208.401 62.9346L203.986 62.4116C201.558 62.1241 197.307 62.1719 194.539 62.5172L189.507 63.146L184.472 66.1777L179.437 69.2095L178.451 68.2235C177.909 67.6812 177.465 66.292 177.465 65.1363V63.0352H170.157H162.848V92.5735V122.112L163.491 122.755C163.845 123.108 167.442 123.28 171.485 123.135L178.836 122.873L179.293 103.981ZM551.796 124.171L550.197 123.239V82.7864V42.3334L546.039 39.3474C543.752 37.7051 540.828 34.7703 539.541 32.8255L537.201 29.2896L536.723 23.3257L536.244 17.3617L537.792 13.3067L539.341 9.25172L543.043 5.90743C545.079 4.06805 548.125 1.98643 549.812 1.28158L552.879 0H558.21H563.541L568.214 2.32856L572.887 4.65711L575.081 7.5815C583.357 18.6105 580.951 33.3284 569.741 40.2568L566.641 42.1726V64.0235V85.8744H567.741C568.346 85.8744 574.238 80.5301 580.835 73.9982L592.829 62.1219H602.574H612.319V62.956C612.319 63.4147 607.403 68.8619 601.394 75.0607L590.47 86.3311L590.449 88.1583L590.428 89.9854L602.287 105.82C608.81 114.529 614.147 122.251 614.147 122.98V124.306L604.353 124.046L594.559 123.787L585.72 112.367C580.858 106.087 576.316 100.833 575.626 100.693L574.372 100.439L570.826 104.07L567.281 107.701L566.559 112.09C566.162 114.504 565.812 118.182 565.783 120.263L565.728 124.048L564.283 124.603C563.489 124.908 560.714 125.145 558.117 125.129L553.395 125.103L551.796 124.171ZM564.627 115.608L564.897 108.343L568.148 104.376C569.936 102.194 572.444 99.7241 573.722 98.8869L576.045 97.3645L579.937 101.663C582.077 104.027 586.19 109.15 589.076 113.047C591.963 116.944 594.958 120.647 595.731 121.275L597.138 122.417L602.673 122.4C605.717 122.394 608.738 122.05 609.386 121.639L610.564 120.892L607.559 116.723C605.906 114.431 602.876 110.354 600.825 107.664C598.774 104.974 594.926 99.6426 592.274 95.8168L587.451 88.8607L588.097 86.826C588.452 85.7069 592.999 80.4096 598.202 75.0542L607.661 65.3171L605.194 64.74C603.837 64.4226 600.939 64.1143 598.754 64.0548L594.781 63.9469L581.665 76.28C568.049 89.0838 567.715 89.3216 565.91 87.5167L564.814 86.4205V64.2195V42.0186L569.343 38.7649L573.872 35.5113L576.18 30.7728C577.45 28.1666 578.732 24.7978 579.029 23.2865L579.571 20.5387L577.672 15.465L575.774 10.3914L572.862 7.41265C571.26 5.77435 568.691 3.7677 567.153 2.95355L564.357 1.47324L557.776 1.44621L551.196 1.41902L547.296 4.15984C545.151 5.66731 542.175 8.63902 540.681 10.7636L537.966 14.6266L537.913 20.7872L537.86 26.9479L539.767 30.6021L541.675 34.2564L546.874 38.2238L552.073 42.1912L552.019 81.6177C551.987 103.302 551.977 121.577 551.992 122.228L552.019 123.412L558.186 123.142L564.352 122.872L564.622 115.606L564.627 115.608ZM552.311 31.1064C550.71 30.1303 548.963 28.5144 548.428 27.5156L547.456 25.6997V21.2751V16.8506L548.946 14.7237C549.766 13.5539 551.82 12.0186 553.511 11.3118L556.587 10.0267L560.253 10.6129L563.919 11.1992L566.65 14.3101L569.382 17.4212V21.131V24.8408L567.483 27.5079C565.202 30.7111 561.271 32.8893 557.779 32.8847L555.222 32.8815L552.311 31.1064ZM563.708 29.584C564.859 28.8398 566.456 26.8555 567.257 25.1745L568.715 22.1182L568.088 19.6209C567.743 18.2473 566.281 15.9429 564.838 14.4999L562.214 11.8763H558.084H553.953L551.529 13.9619L549.104 16.0475L548.699 20.1284L548.295 24.2092L549.487 26.4932L550.68 28.7771L553.865 30.3968L557.049 32.0165L559.333 31.4769C560.589 31.1803 562.558 30.3283 563.708 29.584ZM638.09 123.271C628.568 119.987 621.235 112.843 618.178 103.871L616.706 99.5512L617.066 91.5708L617.426 83.5905L619.559 79.213C620.732 76.8053 623.445 73.0316 625.588 70.8269L629.484 66.8184L634.376 64.293L639.269 61.7677L648.525 61.3881L657.781 61.0092L663.356 63.511L668.931 66.0128L672.972 70.3325C675.194 72.7083 677.885 76.363 678.952 78.4539L680.891 82.2556L681.092 89.716L681.293 97.1764L679.009 97.8292C677.753 98.1886 667.603 98.5231 656.453 98.5732L636.18 98.664L635.605 99.5943L635.03 100.524L637.013 103.734L638.997 106.943L642.523 108.742L646.048 110.54H652.119H658.189L662.736 108.256C665.237 107 667.738 105.972 668.293 105.972C669.487 105.972 676.211 113.327 676.229 114.651C676.26 117.127 670.168 121.618 664.001 123.664L659.499 125.157L651.211 125.048L642.924 124.938L638.09 123.271ZM663.282 121.264C672.711 117.901 674.435 115.669 670.886 111.42L668.244 108.257L663.805 110.425L659.367 112.593L653.632 113.064L647.896 113.536L644.039 111.869C637.652 109.109 633.331 104.18 633.331 99.6555V97.8152L635.098 96.8694L636.865 95.9238H657.937H679.009L678.988 90.214L678.966 84.5043L677.112 80.3932L675.257 76.2823L670.965 71.8691C668.605 69.4418 665.029 66.5851 663.019 65.5208L659.365 63.5858L650.229 63.538L641.094 63.4901L635.862 66.0593L630.63 68.6284L626.579 73.2598L622.527 77.8912L620.62 82.8766L618.712 87.862L618.712 93.4904L618.713 99.1189L620.311 103.23C622.429 108.679 625.265 112.329 630.435 116.262L634.699 119.506L640.18 121.406L645.662 123.307L652.513 122.983L659.365 122.658L663.28 121.262L663.282 121.264ZM633.362 89.1093L632.256 87.7763L632.883 84.9208L633.51 82.0652L637.303 78.149L641.096 74.2327L645.512 73.5912L649.927 72.9498L653.734 73.5598L657.54 74.1699L660.432 76.1044L663.324 78.0389L664.771 81.0741C665.568 82.7434 666.219 85.2846 666.219 86.7212V89.3331L664.774 89.8877C663.979 90.1928 656.835 90.4422 648.898 90.4422H634.468L633.362 89.1093ZM663.31 87.4469L664.28 86.2787L662.633 82.6507L660.987 79.0227L658.209 77.424L655.431 75.8252H649.69H643.95L641.095 77.7811C636.512 80.9216 633.684 86.9544 636.3 88.01C636.928 88.2636 643.044 88.5033 649.891 88.5429L662.341 88.6153L663.31 87.4469ZM316.967 123.667L316.327 123.026V91.843V60.6602L315.23 59.5639L314.134 58.4677H302.081H290.029L289.474 57.0226C288.757 55.1528 288.757 47.1656 289.474 45.2958L290.029 43.8507H325.56H361.091V51.1592V58.4677L353.554 58.6074C349.409 58.6845 343.88 58.7871 341.267 58.836L336.518 58.9242L335.57 59.8712L334.622 60.8182L334.381 92.3025L334.141 123.787L325.874 124.047C321.328 124.19 317.32 124.02 316.967 123.667ZM332.29 117.621C332.6 114.983 332.733 100.63 332.584 85.7254L332.313 58.6265L333.071 57.8619L333.829 57.0973L346.318 56.6407L358.807 56.1841L359.083 51.388L359.359 46.5918L355.429 46.6236C353.267 46.6399 338.763 46.4998 323.196 46.3074C307.63 46.115 294.166 46.1479 293.277 46.3809L291.661 46.8034V51.7215V56.6395L303.765 56.6558L315.87 56.6721L317.24 57.5383L318.611 58.4045L318.806 90.184C318.914 107.663 319.017 122.066 319.035 122.192C319.051 122.317 321.915 122.42 325.397 122.42H331.726L332.29 117.624L332.29 117.621ZM366.987 123.094C366.745 122.462 366.655 108.588 366.787 92.2619L367.029 62.5787L375.038 62.3145L383.047 62.0503L383.603 64.8268C384.289 68.2598 384.659 68.2618 390.183 64.864L394.638 62.1233L399.012 61.5237L403.387 60.9241L404.621 62.6119L405.855 64.2997V69.2097V74.1197L404.909 75.8868L403.964 77.6538H400.401C393.974 77.6538 388.932 80.6667 386.034 86.2379L384.658 88.8838L384.394 105.577C384.248 114.758 383.855 122.714 383.519 123.257L382.908 124.245H375.168H367.428L366.987 123.094ZM380.885 121.713L381.951 121.032L382.255 103.986L382.56 86.9397L385.313 83.025C386.827 80.8719 389.357 78.3565 390.934 77.4352L393.803 75.76L398.459 75.2086L403.115 74.6572V69.3031V63.949H400.345C396.808 63.949 391.832 66.0273 388.346 68.9611C386.845 70.2241 384.834 71.2575 383.877 71.2575H382.138L381.587 68.7452C381.284 67.3634 380.871 65.6993 380.668 65.0471L380.299 63.8612L374.577 64.1334L368.856 64.4055L368.614 92.6636L368.372 120.922L369.262 121.471C370.605 122.302 379.668 122.49 380.885 121.713ZM693.267 122.799C692.961 122.004 692.718 108.54 692.726 92.8797L692.742 64.4058L693.492 63.2245L694.241 62.0432L701.873 62.311L709.504 62.5789L710.271 65.548C711.204 69.1624 710.736 69.1757 716.386 65.3736L721.057 62.2305L725.146 61.6174C727.394 61.2799 729.856 61.2427 730.616 61.5346L731.997 62.0645V69.3039V76.5433L730.552 77.0979C729.757 77.403 727.682 77.6524 725.939 77.6524H722.771L719.847 79.1213C716.573 80.7665 714.122 83.3841 712.669 86.7879L711.693 89.0718L711.805 104.875L711.916 120.679L710.962 122.461L710.008 124.244H701.916H693.824L693.267 122.799ZM709.162 104.602L709.624 87.2447L711.171 84.4112C712.021 82.8529 714.159 80.3113 715.923 78.7633L719.128 75.9488L723.506 75.362C725.914 75.0394 728.398 74.6134 729.026 74.4154L730.168 74.0556V69.0024V63.9491H727.398C723.861 63.9491 718.886 66.0274 715.399 68.9612C713.898 70.2242 711.887 71.2576 710.931 71.2576H709.191L708.641 68.7453C708.338 67.3635 707.932 65.7191 707.738 65.0911L707.386 63.9491H701.42H695.453V92.5739V121.199L696.099 121.845C696.455 122.201 699.435 122.372 702.723 122.226L708.699 121.96L709.162 104.602Z" fill="black"/>
<path d="M422.756 121.383C417.173 119.124 415.226 117.44 413.545 113.417L412.25 110.317L412.253 106.09L412.256 101.862L414.036 98.9424C417.656 93.0053 422.139 91.4448 438.113 90.561L449.816 89.9136L450.684 88.5793L451.551 87.2449L451.022 83.5907L450.493 79.9365L447.372 76.9674L444.251 73.9983L438.528 73.9059C429.324 73.7571 427.113 74.0372 423.464 75.8138L420.015 77.493L419.077 76.7171C417.862 75.7114 415.591 69.4391 416.216 68.8143C416.479 68.5506 419.463 67.3298 422.847 66.1016L428.999 63.8686L435.963 63.3316L442.927 62.7946L448.371 64.3507C451.366 65.2066 455.35 66.9057 457.224 68.1266L460.632 70.3463L462.705 74.2279L464.779 78.1095V100.035V121.96H459.339H453.899L453.361 119.681L452.823 117.402L451.196 117.089L449.569 116.776L448.022 118.176C447.171 118.946 444.632 120.412 442.38 121.434L438.286 123.291L432.804 123.259L427.323 123.227L422.755 121.379L422.756 121.383ZM444.844 113.251L448.662 111.614L450.242 108.565L451.821 105.516L451.905 101.6L451.989 97.6848L450.619 96.8182L449.249 95.9517L441.683 95.9354L434.116 95.919L431.009 97.2174L427.901 98.5158L426.47 101.283C424.675 104.754 424.662 107.157 426.423 110.557L427.804 113.228L432.132 114.537L436.461 115.846L438.745 115.365C440.001 115.1 442.747 114.147 444.846 113.247L444.844 113.251ZM501.067 121.381L495.331 119.403L491.331 115.883C489.132 113.947 486.3 110.601 485.038 108.449L482.745 104.535L481.712 98.8422L480.68 93.1497L481.619 88.0695L482.558 82.9892L485.057 78.3975L487.557 73.8057L491.468 70.3631L495.379 66.9205L501.79 64.8589L508.202 62.7972L514.969 63.2315L521.735 63.6657L526.768 66.1279L531.801 68.5902L534.624 71.8057L537.447 75.0213L536.923 75.8693C536.635 76.3354 534.544 77.8047 532.276 79.1337L528.153 81.55L525.243 78.7973C523.643 77.2834 521.435 75.5842 520.338 75.0215L518.342 73.9983H513.586H508.83L504.71 76.0538L500.591 78.1093L498.504 81.3068L496.418 84.5042L495.55 89.4026L494.682 94.3009L495.839 99.2789L496.997 104.257L499.159 106.574C501.809 109.413 506.738 112.016 510.971 112.81L514.141 113.405L518.694 111.918L523.247 110.432L525.657 107.674L528.066 104.917L531.656 106.749C533.63 107.756 535.757 109.197 536.383 109.951L537.521 111.322L534.259 114.933L530.997 118.544L526.208 120.632L521.42 122.721L514.111 123.04L506.803 123.359L501.067 121.381ZM558.19 122.666L563.9 122.333V114.691V107.049L558.459 106.739L553.017 106.43L552.674 109.627C552.485 111.386 552.318 106.658 552.302 99.1214C552.286 91.5846 552.464 86.4458 552.698 87.7019C553.389 91.4222 556.869 92.4394 561.574 90.296L563.9 89.2358V86.8953V84.5547L565.323 86.5851C567.45 89.622 567.539 89.5659 581.665 76.2825L594.781 63.9495L598.754 64.0573C600.939 64.1167 603.837 64.4251 605.194 64.7424L607.661 65.3195L598.202 75.0566C592.999 80.4121 588.452 85.7094 588.097 86.8285L587.451 88.8632L592.274 95.8193C594.926 99.6451 598.774 104.976 600.825 107.666C602.876 110.356 605.906 114.433 607.559 116.726L610.564 120.894L609.386 121.641C608.738 122.052 605.717 122.395 602.673 122.403L597.138 122.419L595.731 121.277C594.958 120.649 591.963 116.947 589.076 113.049C586.19 109.152 582.077 104.029 579.937 101.665L576.045 97.367L573.722 98.8893C572.444 99.7266 569.936 102.197 568.148 104.378L564.898 108.345L564.628 115.611L564.358 122.876L558.419 122.939L552.481 123.001L558.191 122.668L558.19 122.666ZM640.182 121.409L634.701 119.508L630.437 116.265C625.267 112.332 622.431 108.681 620.313 103.232L618.715 99.1211L618.714 93.4927L618.714 87.8643L620.621 82.8788L622.529 77.8935L626.581 73.2621L630.632 68.6307L635.864 66.0616L641.096 63.4924L650.231 63.5402L659.367 63.5881L663.021 65.5231C665.031 66.5874 668.607 69.4441 670.967 71.8713L675.259 76.2845L677.114 80.3955L678.968 84.5065L678.989 90.2162L679.01 95.926H657.939H636.867L635.1 96.8717L633.333 97.8174V99.6577C633.333 104.183 637.654 109.112 644.041 111.871L647.898 113.538L653.634 113.066L659.369 112.595L663.807 110.427L668.246 108.259L670.888 111.422C674.437 115.671 672.713 117.903 663.284 121.266L659.369 122.662L652.517 122.987L645.666 123.311L640.184 121.41L640.182 121.409ZM664.774 89.8879L666.219 89.3333V86.7213C666.219 85.2848 665.567 82.7436 664.771 81.0742L663.324 78.0391L660.432 76.1046L657.54 74.1701L653.733 73.56L649.927 72.9499L645.511 73.5914L641.096 74.2329L637.303 78.1491L633.51 82.0654L632.883 84.9209L632.255 87.7765L633.362 89.1094L634.468 90.4423H648.898C656.835 90.4423 663.979 90.1931 664.774 89.8879ZM319.034 122.188C319.018 122.063 318.914 107.659 318.806 90.1806L318.61 58.4012L317.24 57.5349L315.869 56.6687L303.765 56.6524L291.66 56.6361V51.7181V46.8L293.277 46.3774C294.166 46.1452 307.629 46.1122 323.196 46.304C338.762 46.4964 353.267 46.6383 355.428 46.6202L359.359 46.5884L359.082 51.3846L358.806 56.1807L346.317 56.6373L333.828 57.0939L333.071 57.8585L332.313 58.6231L332.583 85.722C332.732 100.626 332.6 114.979 332.29 117.617L331.725 122.413H325.396C321.915 122.413 319.052 122.311 319.034 122.185L319.034 122.188ZM369.261 121.472L368.372 120.922L368.614 92.664L368.856 64.4059L374.577 64.1338L380.299 63.8617L380.668 65.0475C380.871 65.6997 381.284 67.3639 381.587 68.7456L382.137 71.2579H383.877C384.834 71.2579 386.845 70.2245 388.346 68.9615C391.832 66.0277 396.808 63.9495 400.344 63.9495H403.114V69.3035V74.6576L398.458 75.2091L393.802 75.7605L390.934 77.4356C389.357 78.3569 386.827 80.8724 385.313 83.0254L382.559 86.9401L382.255 103.986L381.951 121.032L380.885 121.713C379.668 122.491 370.605 122.302 369.261 121.472ZM696.099 121.845L695.452 121.199V92.5741V63.9493H701.419H707.386L707.738 65.0913C707.931 65.7193 708.337 67.3637 708.64 68.7455L709.191 71.2577H710.93C711.887 71.2577 713.898 70.2243 715.399 68.9614C718.886 66.0275 723.861 63.9493 727.398 63.9493H730.168V69.0025V74.0558L729.026 74.4156C728.398 74.6133 725.914 75.0395 723.506 75.3622L719.128 75.949L715.922 78.7635C714.159 80.3115 712.021 82.8531 711.17 84.4114L709.624 87.2449L709.161 104.602L708.699 121.96L702.722 122.226C699.435 122.372 696.454 122.199 696.099 121.845Z" fill="black"/>
<path d="M34.0375 123.696C31.2739 122.959 26.4331 121.152 23.2801 119.683L17.5473 117.01L12.9986 112.34L8.44991 107.67L6.21934 102.939C2.08257 94.1645 0.970174 83.8204 3.08737 73.815L4.11174 68.9739L7.65258 62.8807L11.1934 56.7876L14.9386 53.5819C19.5094 49.6694 27.1374 45.9631 33.3697 44.6265L38.0175 43.6297L47.6802 44.0278L57.3429 44.426L62.6695 46.8645C65.5991 48.2057 69.6051 50.5775 71.5718 52.1351L75.1475 54.9672V56.6398V58.3125L70.4492 62.0533L65.751 65.7941L62.9124 63.6331C61.3512 62.4446 58.2239 60.5095 55.9628 59.3328L51.8518 57.1935L45.0002 57.1951L38.1485 57.1966L33.5807 59.5775C28.2473 62.3575 23.9924 66.5826 21.3587 71.714L19.4831 75.3682L18.8913 80.4335L18.2995 85.4988L19.3735 90.672L20.4474 95.8452L23.7338 100.287C25.5413 102.73 28.3985 105.632 30.0832 106.737L33.1463 108.744L38.8462 110.066L44.546 111.388L50.8134 110.077L57.0807 108.766L61.0681 105.498L65.0555 102.231L66.6757 103.116C67.5668 103.603 69.9403 105.711 71.9501 107.802L75.6043 111.603L71.2379 115.584L66.8714 119.565L61.6762 121.508C51.3881 125.358 42.8082 126.037 34.0375 123.696ZM58.1529 121.33C64.4664 119.065 69.2998 116.266 71.8844 113.377L73.6457 111.408L70.1002 107.777C65.8405 103.414 65.8293 103.413 61.3372 106.971L57.7698 109.797L52.5269 111.05C37.9472 114.534 26.489 109.401 19.8917 96.4296L17.5934 91.9108V84.0042V76.0977L19.9517 71.6222C22.8993 66.0284 26.8852 61.8267 32.202 58.7082L36.3214 56.2922L43.7664 55.8999L51.2116 55.5076L56.0995 57.8218C58.7878 59.0946 61.9753 60.994 63.1827 62.0426C66.0331 64.5182 65.8532 64.5649 70.3744 60.1766L74.2612 56.404L73.2191 55.1484C72.646 54.4578 69.6976 52.3865 66.6672 50.5456L61.1573 47.1986L56.0478 45.9958C45.8308 43.5907 33.9414 44.7145 24.2473 49.0017L19.2482 51.2126L14.4803 55.9822L9.71244 60.7517L7.35924 65.894L5.00606 71.0363L3.90873 77.5418L2.81143 84.0474L3.89392 90.6707L4.97636 97.294L7.32942 102.189L9.68251 107.084L13.9769 111.493L18.2714 115.902L22.2718 117.75C24.472 118.767 28.3277 120.396 30.84 121.371L35.4078 123.144L43.9928 123.237L52.5778 123.331L58.1529 121.33ZM103.846 122.457C97.5418 120.213 93.5664 117.462 89.7779 112.721L86.5939 108.737L84.9197 103.929L83.2456 99.1212L83.1879 94.0967L83.1303 89.0721L84.6916 83.7966L86.253 78.521L89.1506 74.7408C90.7444 72.6617 94.0499 69.5859 96.4962 67.9057L100.944 64.8508L106.056 63.3647L111.169 61.8784L118.598 62.4025L126.027 62.9266L131.032 65.2964L136.037 67.6662L139.75 71.5172C141.793 73.6353 144.536 77.4205 145.848 79.9288L148.232 84.4893V93.4402V102.391L146.283 106.237C141.766 115.153 136.461 119.716 127.22 122.631L122.196 124.217L115.344 124.164L108.492 124.11L103.846 122.457ZM129.43 120.624L134.836 118.516L138.939 114.3L143.041 110.084L145.171 105.516L147.301 100.948L147.308 93.6399L147.316 86.3314L144.7 80.8004L142.083 75.2694L137.381 71.1562L132.679 67.0431L128.078 65.3884L123.476 63.7337L115.527 63.6705L107.578 63.6072L103.083 65.6228C100.611 66.7314 96.8103 69.095 94.6376 70.8754L90.6874 74.1123L88.4554 77.938L86.2234 81.7637L85.0909 87.9519L83.9584 94.1401L85.6187 101.183L87.279 108.225L92.8607 113.805L98.4424 119.384L104.38 121.306L110.319 123.227L117.17 122.98L124.022 122.732L129.43 120.624ZM108.479 111.362C106.476 110.307 103.743 108.187 102.405 106.651L99.9709 103.86L98.8618 99.8983L97.7527 95.937L98.1774 91.5169L98.6021 87.0967L100.35 83.5348L102.097 79.9729L106.051 76.9856L110.005 73.9984H115.451H120.898L124.515 75.8436L128.132 77.6887L130.645 81.4866L133.158 85.2844V93.7168V102.149L130.331 105.66C128.776 107.591 125.898 110.089 123.936 111.211L120.369 113.251L116.244 113.268L112.12 113.284L108.479 111.362ZM122.234 110.651L125.926 108.974L128.376 106.061L130.826 103.149L131.847 99.3588L132.868 95.5684L132.26 90.4932L131.653 85.4179L129.497 82.1027L127.341 78.7875L123.338 76.8498L119.335 74.912H116.397C110.077 74.912 103.513 79.1965 101.002 84.9611L99.6086 88.1585L99.499 93.1831L99.3893 98.2077L101.657 102.775L103.925 107.343L108.885 109.856L113.845 112.368L116.193 112.347C117.485 112.336 120.203 111.573 122.234 110.651ZM246.896 122.251C243.128 121.282 239.476 119.928 238.78 119.243L237.516 117.996L238.78 113.697L240.045 109.398L241.352 108.894L242.658 108.391L248.203 110.361C251.253 111.445 256.076 112.598 258.922 112.923L264.096 113.514L267.423 112.89L270.751 112.266L272.527 110.49L274.303 108.714V106.496V104.278L272.002 102.468L269.701 100.658L265.077 100.022C262.534 99.6725 257.376 98.6358 253.616 97.7187L246.779 96.0509L243.652 93.6663C239.93 90.8273 238.922 89.118 238.16 84.3519L237.588 80.7733L238.612 76.9706L239.636 73.1679L242.015 70.3407L244.394 67.5136L249.071 65.0626L253.748 62.6117L265.167 62.633L276.587 62.6543L281.372 64.2849C287.424 66.3469 287.472 66.448 285.103 72.1467L283.131 76.8927L280.772 76.3201C279.475 76.0049 275.088 75.2816 271.022 74.7123L263.63 73.6772L259.696 74.5227L255.762 75.3682L253.974 77.7707L252.185 80.1732L252.826 82.1943L253.468 84.2154L257.262 85.9383L261.056 87.6611L264.386 87.6824C268.585 87.7091 279.272 90.9433 283.318 93.4143L286.395 95.2933L288.094 99.0347C291.012 105.46 289.444 112.783 284.095 117.706L281.771 119.846L275.711 122.045L269.652 124.245L261.7 124.129L253.748 124.013L246.896 122.251ZM273.467 121.419C280.217 119.218 284.68 116.15 286.637 112.366L288.006 109.718V105.529V101.341L286.408 98.8607C282.953 93.4992 275.385 90.1775 263.998 89.024L257.805 88.3967L254.863 86.4213L251.921 84.446L251.648 81.6858L251.375 78.9257L253.265 76.5235L255.154 74.1214L259.963 73.0453L264.772 71.9692L271.136 73.0114C274.636 73.5846 278.54 74.2773 279.811 74.5507L282.122 75.0477L283.694 71.7513C286.203 66.49 285.354 65.9634 271.106 63.9433L263.797 62.9071L258.316 63.8154C255.301 64.315 251.352 65.3522 249.541 66.1204L246.248 67.5172L243.42 70.7382L240.591 73.9592L239.977 77.2332C239.639 79.034 239.571 82.3483 239.824 84.5983L240.285 88.6893L241.99 90.5729C245.297 94.2272 252.145 96.6569 264.865 98.689L271.076 99.6812L272.794 101.228C273.739 102.079 274.875 103.723 275.318 104.882L276.124 106.989L274.713 109.718L273.302 112.446L270.833 113.41L268.365 114.375L260.138 113.967L251.911 113.559L249.175 112.178C247.671 111.419 245.356 110.538 244.033 110.221L241.626 109.645L240.269 113.767L238.912 117.888L239.935 118.554C240.498 118.92 244.453 120.104 248.723 121.185L256.489 123.15L262.048 123.241L267.606 123.331L273.467 121.419ZM163.264 122.18C163.021 121.547 162.931 108.084 163.064 92.2611L163.306 63.4925H170.157H177.009L177.303 66.0587L177.598 68.6249L178.949 69.1432L180.3 69.6615L182.309 67.8878C183.414 66.9123 186.155 65.3187 188.4 64.3464L192.482 62.5786L200.276 62.6425L208.07 62.7063L211.724 64.6093C216.203 66.9418 218.67 69.5525 221.46 74.9122L223.601 79.0232V100.949V122.874L216.064 123.139L208.527 123.404L208.37 117.658C208.284 114.497 208.181 106.156 208.142 99.1213L208.07 86.3315L206.243 82.7497L204.416 79.1679L201.233 77.4968L198.049 75.8256H194.107H190.165L187.698 77.1143C186.341 77.8232 183.998 79.6991 182.49 81.283L179.75 84.163L179.512 101.691C179.381 111.332 179.065 120.145 178.809 121.275L178.345 123.331H171.025H163.705L163.264 122.18ZM177.466 107.011V92.5189L178.369 87.7547L179.273 82.9904L181.339 80.4235C182.475 79.0117 184.637 77.1024 186.145 76.1806L188.885 74.5046L194.022 74.5616L199.158 74.6184L202.58 76.7334L206.002 78.8483L207.701 82.5898L209.4 86.3312L209.42 103.917L209.44 121.503H215.835H222.23V100.627V79.7516L219.867 75.2762C216.676 69.2328 214.452 67.0104 209.831 65.2456L205.93 63.7556L198.321 64.1564L190.712 64.5572L187.515 66.0884C185.756 66.9307 183.269 68.4569 181.988 69.48L179.659 71.3404L178.106 70.7443L176.552 70.1481V67.6029V65.0577L175.107 64.5031C174.312 64.198 171.87 63.9486 169.68 63.9486H165.697L164.97 65.0906L164.243 66.2325L164.12 85.4172C164.053 95.9688 164.207 108.405 164.462 113.052L164.926 121.503H171.196H177.466L177.466 107.011ZM552.032 118.991C552.039 117.107 552.286 113.51 552.587 110.997L553.134 106.43L558.518 106.739L563.901 107.048V114.732V122.417H557.962H552.024L552.035 118.991L552.032 118.991ZM553.852 90.4627L552.481 89.5975L552.186 65.3458L551.89 41.094L547.57 38.266L543.25 35.438L541.014 32.1746L538.778 28.9112V21.0421V13.173L541.851 9.29272L544.925 5.41253L548.438 3.61994L551.952 1.82739H557.867C564.957 1.82739 567.19 2.58759 571.682 6.53145L575.098 9.53078L576.808 13.52L578.518 17.5093V21.4689V25.4284L576.796 29.3867C575.006 33.4998 571.029 37.8384 567.385 39.652L565.271 40.7039L564.815 64.585C564.563 77.7195 564.152 88.6494 563.901 88.8737C561.279 91.2137 556.29 92.0026 553.852 90.4627ZM560.932 41.7865L563.901 41.8939V40.65V39.4062L565.829 38.7942C566.889 38.4578 569.283 36.8036 571.148 35.1185L574.539 32.0547L576.204 27.156L577.87 22.2573L577.249 18.9513L576.629 15.6454L573.691 11.3007L570.752 6.95594L566.726 4.84837L562.7 2.74081L558.047 2.76194L553.395 2.78306L549.686 4.46765L545.977 6.15223L542.858 10.0908L539.738 14.0294L539.717 21.0131L539.696 27.9967L541.88 31.1859C544.007 34.2913 548.351 37.4535 550.504 37.4626C551.091 37.4642 552.805 38.5227 554.312 39.8126C555.82 41.1027 556.539 41.8985 555.911 41.5813L554.769 41.0045V42.0697V43.1349L556.368 42.408C557.247 42.0083 559.303 41.7294 560.936 41.7885L560.932 41.7865ZM552.938 33.4987L548.827 31.4199L547.23 28.2715L545.632 25.1231L545.631 21.8336C545.63 20.0243 546.077 17.2605 546.624 15.6917L547.618 12.8392L550.786 10.8814L553.954 8.92368L559.549 9.32816L565.144 9.73265L568.177 13.2405L571.209 16.7482V20.9517V25.1553L568.977 28.4397L566.745 31.7241L562.592 33.6763C557.557 36.0436 557.987 36.0519 552.938 33.4987ZM563.76 31.4409C565.093 30.6448 567.004 28.8976 568.006 27.5583L569.828 25.1231L569.831 21.4689L569.834 17.8146L567.734 14.8685L565.635 11.9224L562.114 10.8677L558.594 9.81303L555.209 10.448L551.824 11.083L549.751 13.3199L547.678 15.5567L547.1 18.4501C546.781 20.0415 546.776 22.7049 547.089 24.3688L547.656 27.3941L550.785 30.1412L553.914 32.8883H557.624H561.334L563.76 31.4409Z" fill="black"/>
<path d="M30.8401 121.371C28.3278 120.396 24.4721 118.767 22.2719 117.75L18.2715 115.902L13.977 111.493L9.6826 107.084L7.32952 102.189L4.97646 97.2941L3.89402 90.6708L2.81152 84.0475L3.90883 77.542L5.00616 71.0364L7.35934 65.8941L9.71254 60.7518L14.4804 55.9823L19.2483 51.2127L24.2474 49.0018C33.9415 44.7146 45.8309 43.5908 56.0479 45.9959L61.1574 47.1987L66.6673 50.5458C69.6977 52.3867 72.6461 54.4579 73.2192 55.1485L74.2613 56.4041L70.3745 60.1767C65.8533 64.565 66.0332 64.5183 63.1828 62.0427C61.9754 60.9941 58.7879 59.0948 56.0996 57.822L51.2117 55.5078L43.7665 55.9L36.3214 56.2923L32.2021 58.7083C26.8853 61.8268 22.8994 66.0286 19.9518 71.6223L17.5935 76.0978V84.0043V91.9109L19.8918 96.4297C26.4891 109.401 37.9473 114.534 52.527 111.05L57.7699 109.797L61.3373 106.971C65.8294 103.413 65.8406 103.414 70.1003 107.777L73.6458 111.408L71.8845 113.377C69.2999 116.266 64.4665 119.065 58.153 121.33L52.5779 123.331L43.9929 123.237L35.4079 123.144L30.8401 121.371ZM104.381 121.306L98.4433 119.384L92.8616 113.805L87.2799 108.225L85.6197 101.183L83.9594 94.1402L85.0919 87.952L86.2244 81.7637L88.4564 77.9381L90.6884 74.1124L94.6386 70.8755C96.8113 69.0952 100.612 66.7315 103.084 65.6229L107.579 63.6074L115.528 63.6706L123.477 63.7338L128.078 65.3885L132.68 67.0432L137.382 71.1563L142.084 75.2695L144.701 80.8005L147.317 86.3316L147.309 93.64L147.302 100.948L145.172 105.516L143.042 110.084L138.94 114.3L134.837 118.516L129.431 120.624L124.024 122.732L117.172 122.98L110.32 123.227L104.381 121.306ZM123.936 111.211C125.898 110.089 128.776 107.591 130.331 105.66L133.158 102.149V93.7169V85.2845L130.645 81.4867L128.132 77.6888L124.515 75.8437L120.898 73.9985H115.452H110.005L106.051 76.9858L102.098 79.973L100.35 83.5349L98.6023 87.0967L98.1775 91.517L97.7528 95.9371L98.8619 99.8984L99.971 103.86L102.405 106.652C103.743 108.187 106.477 110.307 108.479 111.362L112.12 113.281L116.244 113.265L120.369 113.249L123.936 111.211ZM248.723 121.185C244.453 120.104 240.498 118.92 239.935 118.554L238.912 117.888L240.269 113.767L241.626 109.645L244.033 110.221C245.356 110.538 247.671 111.419 249.175 112.178L251.911 113.559L260.138 113.967L268.365 114.375L270.833 113.411L273.302 112.446L274.713 109.718L276.124 106.989L275.318 104.882C274.875 103.724 273.739 102.079 272.794 101.228L271.076 99.6813L264.865 98.6891C252.145 96.657 245.297 94.2274 241.99 90.573L240.285 88.6894L239.824 84.5984C239.571 82.3484 239.64 79.034 239.977 77.2333L240.592 73.9593L243.42 70.7383L246.248 67.5173L249.541 66.1205C251.352 65.3523 255.301 64.3151 258.316 63.8155L263.797 62.9072L271.106 63.9434C285.354 65.9635 286.203 66.4901 283.694 71.7514L282.122 75.0478L279.811 74.5509C278.54 74.2777 274.636 73.5848 271.136 73.0115L264.772 71.9693L259.963 73.0454L255.154 74.1215L253.265 76.5236L251.375 78.9258L251.648 81.6859L251.921 84.4461L254.863 86.4214L257.805 88.3968L263.998 89.0242C275.385 90.1776 282.953 93.4993 286.408 98.8608L288.006 101.341V105.529V109.718L286.637 112.366C284.68 116.15 280.217 119.218 273.467 121.419L267.606 123.331L262.047 123.241L256.489 123.151L248.723 121.185ZM164.463 113.053C164.207 108.405 164.054 95.9696 164.121 85.418L164.243 66.2333L164.97 65.0913L165.697 63.9494H169.68C171.87 63.9494 174.312 64.1987 175.107 64.5039L176.552 65.0584V67.6036V70.1488L178.106 70.7449L179.659 71.3411L181.988 69.4807C183.269 68.4575 185.756 66.9314 187.515 66.0891L190.712 64.5578L198.321 64.1571L205.93 63.7563L209.831 65.2463C214.452 67.0111 216.676 69.2335 219.867 75.2768L222.23 79.7523V100.628V121.504H215.835H209.44L209.42 103.918L209.4 86.3318L207.701 82.5904L206.002 78.849L202.58 76.734L199.158 74.6191L194.022 74.5623L188.885 74.5048L186.145 76.1809C184.637 77.1027 182.475 79.012 181.338 80.4238L179.273 82.9907L178.369 87.7549L177.466 92.5192V107.011V121.504H171.196H164.926L164.463 113.053ZM554.765 42.0678V41.0026L555.907 41.5794C556.535 41.8967 555.816 41.1005 554.308 39.8107C552.801 38.5207 551.087 37.4633 550.5 37.4608C548.347 37.4499 544.003 34.2894 541.876 31.184L539.691 27.9948L539.713 21.0112L539.734 14.0275L542.853 10.0889L545.973 6.15033L549.681 4.46577L553.39 2.78117L558.043 2.76005L562.695 2.73877L566.722 4.84636L570.748 6.95394L573.686 11.2987L576.625 15.6434L577.245 18.9493L577.865 22.2553L576.2 27.154L574.535 32.0527L571.144 35.1165C569.279 36.8016 566.885 38.4557 565.824 38.7923L563.896 39.4042V40.648V41.8918L560.927 41.7845C559.294 41.7256 557.239 42.004 556.359 42.404L554.761 43.1309L554.765 42.0678ZM562.592 33.6769L566.745 31.7247L568.977 28.4403L571.209 25.1559V20.9523V16.7488L568.177 13.241L565.145 9.73325L559.549 9.32874L553.954 8.92425L550.786 10.882L547.618 12.8398L546.624 15.6923C546.077 17.2611 545.63 20.0249 545.631 21.8342L545.633 25.1237L547.23 28.2721L548.827 31.4204L552.938 33.4993C557.987 36.0526 557.556 36.0443 562.592 33.6769Z" fill="black"/>
</g>
</mask>
<g mask="url(#mask0_936_267)">
<rect x="-186" y="-144" width="1104" height="288" fill="url(#paint0_linear_936_267)"/>
</g>
<defs>
<linearGradient id="paint0_linear_936_267" x1="-186" y1="0" x2="918" y2="0" gradientUnits="userSpaceOnUse">
<stop stop-color="#13355E"/>
<stop offset="1" stop-color="#194172"/>
</linearGradient>
<clipPath id="clip0_936_267">
<rect width="731.997" height="126.071" fill="white"/>
</clipPath>
</defs>
</svg>
